<!DOCTYPE svg PUBLIC "-//W3C//DTD SVG 1.1//EN" "http://www.w3.org/Graphics/SVG/1.1/DTD/svg11.dtd">
<!-- Uploaded to: SVG Repo, www.svgrepo.com, Transformed by: SVG Repo Mixer Tools -->
<svg width="800px" height="800px" viewBox="0 0 14 14" role="img" focusable="false" aria-hidden="true" xmlns="http://www.w3.org/2000/svg" fill="#4c4c4c" stroke="#4c4c4c" stroke-width="1.4">
<g id="SVGRepo_bgCarrier" stroke-width="0"/>
<g id="SVGRepo_tracerCarrier" stroke-linecap="round" stroke-linejoin="round" stroke="#4c4c4c" stroke-width="0.05600000000000001"/>
<g id="SVGRepo_iconCarrier"> <g transform="matrix(.3 0 0 .3 -.23126488 -.2)"> <path fill="#dcc789" d="M24.639 4c-8.6 0-18.43 4.954-18.43 18.947C6.209 33.108 13.842 44 25.519 44h.175c4.385-.079 9.105-2.918 9.105-8.959 0-1.157-.431-2.159-.809-3.042-.102-.233-.199-.462-.288-.694-.864-2.175.089-2.971 2.329-4.565 2.537-1.806 6.013-4.278 5.968-10.819C41.999 12.032 37.756 4 24.639 4zm.56 35.2c-2.241 0-4.001-1.76-4.001-3.999 0-2.241 1.76-4.001 4.001-4.001 2.238 0 3.998 1.76 3.998 4.001 0 2.239-1.759 3.999-3.998 3.999z"/> <circle cx="34.5" cy="16.5" r="3.5" fill="#e67a7a"/> <circle cx="25.5" cy="10.5" r="3.5" fill="#f3d439"/> <circle cx="15.5" cy="15.5" r="3.5" fill="#6ab479"/> <circle cx="14.5" cy="26.5" r="3.5" fill="#7ea7dd"/> </g> </g>
</svg>