<!DOCTYPE svg PUBLIC "-//W3C//DTD SVG 1.1//EN" "http://www.w3.org/Graphics/SVG/1.1/DTD/svg11.dtd">
<!-- Uploaded to: SVG Repo, www.svgrepo.com, Transformed by: SVG Repo Mixer Tools -->
<svg height="800px" width="800px" version="1.1" id="Layer_1" xmlns="http://www.w3.org/2000/svg" xmlns:xlink="http://www.w3.org/1999/xlink" viewBox="0 0 512 512" xml:space="preserve" fill="#4c4c4c">
<g id="SVGRepo_bgCarrier" stroke-width="0"/>
<g id="SVGRepo_tracerCarrier" stroke-linecap="round" stroke-linejoin="round"/>
<g id="SVGRepo_iconCarrier"> <path style="fill:#8CC1EA;" d="M324.957,31.509h92.138c15.134,0,27.41,12.276,27.41,27.41V476.34c0,15.134-12.276,27.41-27.41,27.41 H94.921c-15.147,0-27.423-12.276-27.423-27.41V58.919c0-15.134,12.276-27.41,27.423-27.41h92.125"/> <polyline style="fill:#FFFFFF;" points="324.955,85.269 387.347,85.269 387.347,449.99 124.655,449.99 124.655,85.269 187.052,85.269 "/> <path style="fill:#F2CA7F;" d="M324.955,99.715H187.052V36.843c0-15.141,12.275-27.415,27.416-27.415h83.073 c15.141,0,27.415,12.274,27.415,27.415V99.715z"/> <path d="M417.096,22.08h-86.188C325.377,9.113,312.504,0,297.54,0h-83.072c-14.963,0-27.838,9.113-33.366,22.08H94.92 c-19.996,0-36.263,16.262-36.263,36.249v88.17c0,4.882,3.956,8.839,8.839,8.839c4.883,0,8.839-3.958,8.839-8.839v-88.17 c0-10.241,8.337-18.571,18.585-18.571h83.293v36.082h-53.557c-4.883,0-8.839,3.958-8.839,8.839v364.72 c0,4.882,3.956,8.839,8.839,8.839h262.693c4.883,0,8.839-3.958,8.839-8.839v-65.43c0-4.882-3.956-8.839-8.839-8.839 c-4.883,0-8.839,3.958-8.839,8.839v56.591H133.494V93.519h44.718v5.606c0,4.882,3.956,8.839,8.839,8.839h137.904 c4.883,0,8.839-3.958,8.839-8.839v-5.606h44.712v260.987c0,4.882,3.956,8.839,8.839,8.839c4.883,0,8.839-3.958,8.839-8.839V84.68 c0-4.882-3.956-8.839-8.839-8.839h-53.552V39.759h83.301c10.239,0,18.571,8.331,18.571,18.571v417.421 c0,10.239-8.33,18.571-18.571,18.571H94.92c-10.246,0-18.585-8.331-18.585-18.571V175.963c0-4.882-3.956-8.839-8.839-8.839 c-4.883,0-8.839,3.958-8.839,8.839v299.788C58.657,495.738,74.924,512,94.92,512h322.175c19.987,0,36.249-16.262,36.249-36.249 V58.329C453.343,38.341,437.083,22.08,417.096,22.08z M316.116,90.286H195.891V36.254c0-10.243,8.332-18.575,18.577-18.575h83.072 c10.243,0,18.577,8.334,18.577,18.575L316.116,90.286L316.116,90.286z"/> <path d="M284.775,59.876h-57.542c-4.883,0-8.839,3.958-8.839,8.839s3.956,8.839,8.839,8.839h57.542c4.883,0,8.839-3.958,8.839-8.839 S289.657,59.876,284.775,59.876z"/> <path d="M337.414,166.42H220.18c-4.883,0-8.839,3.958-8.839,8.839s3.956,8.839,8.839,8.839h117.235c4.883,0,8.839-3.958,8.839-8.839 S342.297,166.42,337.414,166.42z"/> <path d="M337.414,366.154H220.18c-4.883,0-8.839,3.958-8.839,8.839s3.956,8.839,8.839,8.839h117.235 c4.883,0,8.839-3.958,8.839-8.839S342.297,366.154,337.414,366.154z"/> <path d="M337.414,299.576H220.18c-4.883,0-8.839,3.958-8.839,8.839s3.956,8.839,8.839,8.839h117.235 c4.883,0,8.839-3.958,8.839-8.839C346.254,303.533,342.297,299.576,337.414,299.576z"/> <path d="M337.414,232.997H220.18c-4.883,0-8.839,3.958-8.839,8.839s3.956,8.839,8.839,8.839h117.235 c4.883,0,8.839-3.958,8.839-8.839S342.297,232.997,337.414,232.997z"/> <circle cx="174.593" cy="175.252" r="8.839"/> <circle cx="174.593" cy="241.841" r="8.839"/> <circle cx="174.593" cy="308.418" r="8.839"/> <circle cx="174.593" cy="374.995" r="8.839"/> </g>
</svg>